<?xml version="1.0" encoding="UTF-8"?>
<svg version="1.1" xmlns="http://www.w3.org/2000/svg" width="463" height="308">
<path d="M0 0 C152.79 0 305.58 0 463 0 C463 101.64 463 203.28 463 308 C310.21 308 157.42 308 0 308 C0 206.36 0 104.72 0 0 Z " fill="#08090B" transform="translate(0,0)"/>
<path d="M0 0 C44.55 0 89.1 0 135 0 C135 8.91 135 17.82 135 27 C117.18 27 99.36 27 81 27 C81 44.82 81 62.64 81 81 C72.09 81 63.18 81 54 81 C54 63.18 54 45.36 54 27 C36.18 27 18.36 27 0 27 C0 18.09 0 9.18 0 0 Z " fill="#F8F8F8" transform="translate(165,138)"/>
<path d="M0 0 C1.32 0 2.64 0 4 0 C4 100.32 4 200.64 4 304 C154.81 304 305.62 304 461 304 C461 203.68 461 103.36 461 0 C461.66 0 462.32 0 463 0 C463 101.64 463 203.28 463 308 C310.21 308 157.42 308 0 308 C0 206.36 0 104.72 0 0 Z " fill="#000000" transform="translate(0,0)"/>
<path d="M0 0 C8.58 0 17.16 0 26 0 C26 8.58 26 17.16 26 26 C17.42 26 8.84 26 0 26 C0 17.42 0 8.84 0 0 Z " fill="#FCFCFC" transform="translate(273,193)"/>
<path d="M0 0 C8.58 0 17.16 0 26 0 C26 8.58 26 17.16 26 26 C17.42 26 8.84 26 0 26 C0 17.42 0 8.84 0 0 Z " fill="#FBFCFC" transform="translate(166,193)"/>
<path d="M0 0 C8.58 0 17.16 0 26 0 C26 8.58 26 17.16 26 26 C17.42 26 8.84 26 0 26 C0 17.42 0 8.84 0 0 Z " fill="#FBFCFB" transform="translate(273,84)"/>
<path d="M0 0 C8.58 0 17.16 0 26 0 C26 8.58 26 17.16 26 26 C17.42 26 8.84 26 0 26 C0 17.42 0 8.84 0 0 Z " fill="#FAFCFC" transform="translate(166,84)"/>
</svg>
