<?xml version="1.0" encoding="UTF-8"?>
<svg version="1.1" xmlns="http://www.w3.org/2000/svg" width="612" height="408">
<path d="M0 0 C1.01836756 -0.00467997 1.01836756 -0.00467997 2.0573082 -0.00945449 C4.31336109 -0.01737886 6.56914082 -0.01113282 8.82519531 -0.00482178 C10.45031898 -0.00753412 12.07544141 -0.01109641 13.70056152 -0.01544189 C18.10133392 -0.02453927 22.50201227 -0.02103259 26.90278625 -0.01468372 C31.51462044 -0.00961 36.12644674 -0.01431899 40.73828125 -0.01745605 C48.48211102 -0.0210917 56.2259026 -0.01630714 63.96972656 -0.0067749 C72.91464676 0.00410887 81.85947578 0.00058301 90.80439377 -0.01042771 C98.49291131 -0.01951203 106.18140146 -0.02078026 113.86992264 -0.01555037 C118.45817814 -0.01243698 123.04639082 -0.01200402 127.63464355 -0.01862335 C131.94879919 -0.02441283 136.26283758 -0.02037062 140.57698059 -0.00883484 C142.15757554 -0.00619682 143.7381804 -0.00693865 145.31877136 -0.01136017 C147.48152637 -0.0168511 149.64390913 -0.00993897 151.80664062 0 C153.01523743 0.00075405 154.22383423 0.0015081 155.46905518 0.002285 C159.25147068 0.2794817 162.30494189 1.09535098 165.90332031 2.25396729 C165.92797129 7.22019078 165.9461568 12.18637895 165.95825195 17.15264893 C165.96329221 18.84341044 165.97012436 20.53416758 165.97875977 22.22491455 C165.99083888 24.64997435 165.99655154 27.07497673 166.00097656 29.50006104 C166.00613785 30.26048203 166.01129913 31.02090302 166.01661682 31.80436707 C166.01681269 33.62129299 165.96529308 35.43809856 165.90332031 37.25396729 C164.90332031 38.25396729 164.90332031 38.25396729 162.16355896 38.3742218 C160.94000198 38.37200119 159.71644501 38.36978058 158.45581055 38.36749268 C157.44609695 38.36771172 157.44609695 38.36771172 156.41598511 38.36793518 C154.18126247 38.36723607 151.94662222 38.35944381 149.71191406 38.35162354 C148.1663467 38.34975935 146.62077874 38.34833545 145.07521057 38.34733582 C140.99974955 38.34351069 136.92432394 38.33368045 132.84887695 38.32263184 C128.69320149 38.3124176 124.53752032 38.30783817 120.38183594 38.30279541 C112.22231444 38.29205817 104.06282178 38.27498182 95.90332031 38.25396729 C95.89301285 39.14124008 95.88270538 40.02851288 95.87208557 40.94267273 C95.77428607 49.28648299 95.67179716 57.63021943 95.56398106 65.97390652 C95.50871295 70.26392939 95.45528688 74.55395902 95.40600586 78.84405518 C95.35841946 82.98082164 95.306079 87.11750265 95.25037956 91.25416756 C95.22992997 92.83586575 95.21122129 94.41758741 95.19424629 95.99932671 C95.17025962 98.20725906 95.14019776 100.41502849 95.10864258 102.62286377 C95.0930983 103.88195053 95.07755402 105.14103729 95.0615387 106.4382782 C94.90332031 109.25396729 94.90332031 109.25396729 93.90332031 110.25396729 C91.23706001 110.34251889 88.59684917 110.36921402 85.93066406 110.35162354 C85.13302139 110.35020859 84.33537872 110.34879364 83.51356506 110.34733582 C80.95594596 110.34172045 78.39841313 110.3291654 75.84082031 110.31646729 C74.11100386 110.31145426 72.38118605 110.30689101 70.65136719 110.30279541 C66.40198478 110.29174603 62.15266719 110.27447115 57.90332031 110.25396729 C55.69102423 106.69202198 55.66068766 103.79425327 55.67626953 99.6494751 C55.67597748 98.99540176 55.67568542 98.34132843 55.67538452 97.66743469 C55.67677355 95.51385045 55.69231424 93.3606158 55.70800781 91.20709229 C55.71173947 89.71065459 55.71458572 88.21421445 55.71658325 86.71777344 C55.72420772 82.78533138 55.74384593 78.85303782 55.76599121 74.9206543 C55.78647526 70.90547697 55.79559044 66.89027558 55.80566406 62.87506104 C55.82709302 55.00129509 55.86121455 47.12764968 55.90332031 39.25396729 C55.04110367 39.24365982 54.17888702 39.23335236 53.2905426 39.22273254 C45.18218883 39.12493131 37.073911 39.02244214 28.96568394 38.91462803 C24.79673015 38.85936093 20.6277694 38.80593503 16.45874023 38.75665283 C12.43868138 38.70906494 8.41871042 38.65672442 4.39875603 38.60102654 C2.86171584 38.58057762 1.32465152 38.56186882 -0.21243095 38.54489326 C-2.35809975 38.52090508 -4.50360098 38.49084345 -6.64916992 38.45928955 C-7.8727269 38.44374527 -9.09628387 38.42820099 -10.35691833 38.41218567 C-13.09667969 38.25396729 -13.09667969 38.25396729 -14.09667969 37.25396729 C-14.18519498 34.66037407 -14.21193914 32.09357037 -14.19433594 29.50006104 C-14.19221352 28.3368911 -14.19221352 28.3368911 -14.19004822 27.15022278 C-14.18443314 24.66393234 -14.17187815 22.17773068 -14.15917969 19.69146729 C-14.15416663 18.00982796 -14.14960338 16.32818722 -14.14550781 14.64654541 C-14.13445882 10.51565162 -14.11718413 6.38482453 -14.09667969 2.25396729 C-9.23410876 0.68830261 -5.15727073 0.00321765 0 0 Z " fill="#121212" transform="translate(230.0966796875,181.74603271484375)"/>
<path d="M0 0 C0.0246501 5.10863896 0.04283607 10.21724359 0.05493164 15.32592773 C0.05997204 17.06519168 0.0668043 18.80445136 0.07543945 20.54370117 C0.08751792 23.03825937 0.09323108 25.53276173 0.09765625 28.02734375 C0.10281754 28.80963852 0.10797882 29.59193329 0.11329651 30.39793396 C0.11349226 32.26567114 0.06199694 34.13329204 0 36 C-1.81565436 37.81565436 -4.31269962 37.12861899 -6.72888184 37.13894653 C-7.52991333 37.1369223 -8.33094482 37.13489807 -9.15625 37.1328125 C-10.38245056 37.13424759 -10.38245056 37.13424759 -11.63342285 37.13571167 C-13.36515378 37.13639345 -15.09688724 37.13453929 -16.82861328 37.13037109 C-19.48866482 37.12502279 -22.1485475 37.13031612 -24.80859375 37.13671875 C-26.48697954 37.13605797 -28.16536523 37.1347768 -29.84375 37.1328125 C-30.64478149 37.13483673 -31.44581299 37.13686096 -32.27111816 37.13894653 C-37.88504921 37.11495079 -37.88504921 37.11495079 -39 36 C-39.10095564 33.34543807 -39.13970998 30.71744824 -39.1328125 28.0625 C-39.13376923 27.267229 -39.13472595 26.47195801 -39.13571167 25.65258789 C-39.13639343 23.9679354 -39.13453943 22.28328029 -39.13037109 20.59863281 C-39.12502275 18.01100803 -39.13031619 15.42355684 -39.13671875 12.8359375 C-39.13605797 11.20312461 -39.1347768 9.57031184 -39.1328125 7.9375 C-39.13483673 7.15834229 -39.13686096 6.37918457 -39.13894653 5.57641602 C-39.11495105 0.11495105 -39.11495105 0.11495105 -38 -1 C-35.52799981 -1.18479576 -33.08154023 -1.3083213 -30.60546875 -1.38671875 C-29.86170486 -1.41224319 -29.11794098 -1.43776764 -28.35163879 -1.46406555 C-26.77381656 -1.51617091 -25.19590359 -1.56558598 -23.61791992 -1.61254883 C-21.2076447 -1.68687876 -18.79834705 -1.77760899 -16.38867188 -1.86914062 C-14.85680259 -1.91767932 -13.32490184 -1.96523705 -11.79296875 -2.01171875 C-11.07304245 -2.04077805 -10.35311615 -2.06983734 -9.6113739 -2.09977722 C-5.87983594 -2.19314683 -3.16330922 -2.08930525 0 0 Z " fill="#1F1F1F" transform="translate(396,255)"/>
<path d="M0 0 C0.80103149 0.00202423 1.60206299 0.00404846 2.42736816 0.00613403 C3.24483521 0.00517731 4.06230225 0.00422058 4.90454102 0.00323486 C6.63627194 0.00255308 8.3680054 0.00440724 10.09973145 0.00857544 C12.75978298 0.01392374 15.41966566 0.00863041 18.07971191 0.00222778 C19.75809771 0.00288857 21.43648339 0.00416973 23.11486816 0.00613403 C23.91589966 0.0041098 24.71693115 0.00208557 25.54223633 0 C31.15616738 0.02399575 31.15616738 0.02399575 32.27111816 1.13894653 C32.37207381 3.79350847 32.41082815 6.42149829 32.40393066 9.07644653 C32.40488739 9.87171753 32.40584412 10.66698853 32.40682983 11.48635864 C32.4075116 13.17101114 32.40565759 14.85566624 32.40148926 16.54031372 C32.39614092 19.1279385 32.40143435 21.71538969 32.40783691 24.30300903 C32.40717613 25.93582192 32.40589497 27.5686347 32.40393066 29.20144653 C32.4059549 29.98060425 32.40797913 30.75976196 32.4100647 31.56253052 C32.38606921 37.02399549 32.38606921 37.02399549 31.27111816 38.13894653 C28.54387538 38.23994141 25.84249293 38.27865182 23.11486816 38.27175903 C21.8886676 38.27319412 21.8886676 38.27319412 20.63769531 38.2746582 C18.90596439 38.27533999 17.17423092 38.27348583 15.44250488 38.26931763 C12.78245334 38.26396932 10.12257066 38.26926265 7.46252441 38.27566528 C5.78413862 38.2750045 4.10575294 38.27372334 2.42736816 38.27175903 C1.62633667 38.27378326 0.82530518 38.2758075 0 38.27789307 C-5.61393105 38.25389732 -5.61393105 38.25389732 -6.72888184 37.13894653 C-6.82983748 34.4843846 -6.86859182 31.85639478 -6.86169434 29.20144653 C-6.86265106 28.40617554 -6.86360779 27.61090454 -6.86459351 26.79153442 C-6.86527527 25.10688193 -6.86342126 23.42222682 -6.85925293 21.73757935 C-6.85390459 19.14995457 -6.85919803 16.56250337 -6.86560059 13.97488403 C-6.8649398 12.34207115 -6.86365864 10.70925837 -6.86169434 9.07644653 C-6.86371857 8.29728882 -6.8657428 7.5181311 -6.86782837 6.71536255 C-6.83897923 0.14918788 -6.55123915 0.0280021 0 0 Z " fill="#1F1F1F" transform="translate(222.7288818359375,253.86105346679688)"/>
<path d="M0 0 C0.72302307 0.02123932 1.44604614 0.04247864 2.190979 0.06436157 C3.71057727 0.11042307 5.23009158 0.15933333 6.74951172 0.2109375 C9.08413564 0.28926416 11.41889627 0.35618293 13.75390625 0.421875 C15.23179216 0.46807269 16.7096578 0.51492447 18.1875 0.5625 C19.23898224 0.59227432 19.23898224 0.59227432 20.31170654 0.62265015 C25.21294397 0.79888147 25.21294397 0.79888147 26.328125 1.9140625 C26.41667661 4.5803228 26.44337173 7.22053364 26.42578125 9.88671875 C26.4243663 10.68436142 26.42295135 11.48200409 26.42149353 12.30381775 C26.41587816 14.86143685 26.40332312 17.41896968 26.390625 19.9765625 C26.38561198 21.70637895 26.38104873 23.43619676 26.37695312 25.16601562 C26.36590375 29.41539803 26.34862886 33.66471562 26.328125 37.9140625 C23.22725831 39.46449584 19.94911734 39.05607 16.546875 39.046875 C15.3929425 39.04831009 15.3929425 39.04831009 14.21569824 39.04977417 C12.58829669 39.05045504 10.96089243 39.04860723 9.33349609 39.04443359 C6.83815427 39.039084 4.34299245 39.04438169 1.84765625 39.05078125 C0.26822877 39.05012045 -1.3111986 39.04883925 -2.890625 39.046875 C-4.01410339 39.04991135 -4.01410339 39.04991135 -5.16027832 39.05300903 C-10.44195257 39.02902372 -10.44195257 39.02902372 -12.671875 37.9140625 C-12.671875 25.7040625 -12.671875 13.4940625 -12.671875 0.9140625 C-8.25452609 0.03059272 -4.44093906 -0.15316922 0 0 Z " fill="#202020" transform="translate(369.671875,110.0859375)"/>
<path d="M0 0 C0.97685005 0.00068733 0.97685005 0.00068733 1.97343445 0.00138855 C3.33557991 0.00438493 4.69772275 0.01219166 6.05981445 0.0246582 C8.1487227 0.04307458 10.23719036 0.0451664 12.32617188 0.04492188 C22.54323136 0.08997505 22.54323136 0.08997505 24.82421875 1.23046875 C24.82421875 13.44046875 24.82421875 25.65046875 24.82421875 38.23046875 C18.38656994 39.30341022 12.21267452 39.41654097 5.71899414 39.41577148 C3.63212139 39.4179736 1.54576495 39.43621208 -0.54101562 39.45507812 C-2.51618164 39.45797852 -2.51618164 39.45797852 -4.53125 39.4609375 C-5.73418701 39.46504639 -6.93712402 39.46915527 -8.17651367 39.47338867 C-11.17578125 39.23046875 -11.17578125 39.23046875 -14.17578125 37.23046875 C-14.44264338 34.5350656 -14.52396198 32.07199411 -14.46875 29.37890625 C-14.46450516 28.60487457 -14.46026031 27.8308429 -14.45588684 27.03335571 C-14.43907123 24.55704198 -14.4014152 22.08153717 -14.36328125 19.60546875 C-14.34823807 17.92839716 -14.33454903 16.25131283 -14.32226562 14.57421875 C-14.28915846 10.45932294 -14.23735762 6.34503306 -14.17578125 2.23046875 C-9.28363357 0.65037433 -5.19218906 -0.01766876 0 0 Z " fill="#1F1F1F" transform="translate(230.17578125,109.76953125)"/>
</svg>
